<?xml version="1.0" encoding="UTF-8"?>
<svg version="1.1" xmlns="http://www.w3.org/2000/svg" width="667" height="635">
<path d="M0 0 C50.82 0 101.64 0 154 0 C158.66396849 9.32793699 163.31233551 18.6278951 167.73022461 28.06982422 C168.04909637 28.75075134 168.36796814 29.43167847 168.69650269 30.13323975 C169.18704636 31.18103607 169.18704636 31.18103607 169.6875 32.25 C170.38864144 33.74370483 171.08989694 35.23735613 171.79125977 36.73095703 C176.55724495 46.88766591 181.28354501 57.06249672 185.99707031 67.24365234 C190.79167166 77.58503562 195.66049013 87.89073853 200.53485107 98.19470215 C205.40553663 108.49182366 210.25361269 118.79887128 215.0625 129.125 C220.01627783 139.76204242 224.99861688 150.3852565 230 161 C235.77396279 173.25485975 241.51953573 185.52259892 247.24267578 197.80126953 C251.47370904 206.87765785 255.72451558 215.94447088 260 225 C263.9491403 223.49083302 267.69562932 221.70983259 271.47265625 219.8125 C272.07758408 219.50932861 272.6825119 219.20615723 273.30577087 218.89379883 C275.22563479 217.93108684 277.14408609 216.96559765 279.0625 216 C280.35472453 215.35137683 281.64704138 214.70293755 282.93945312 214.0546875 C285.31185503 212.86441749 287.68359922 211.67287122 290.05493164 210.48046875 C292.36853541 209.31743358 294.68326519 208.15678036 297 207 C296.51140503 205.9476416 296.51140503 205.9476416 296.01293945 204.87402344 C295.02172373 202.73909727 294.03051333 200.60416864 293.03930664 198.46923828 C291.87057437 195.95196233 290.70178493 193.43471293 289.53295898 190.91748047 C286.59918343 184.59905656 283.66591741 178.28039796 280.734375 171.9609375 C273.43338556 156.22449718 266.10649677 140.50031385 258.76611328 124.78222656 C256.13425654 119.14634968 253.50419121 113.50963683 250.87399292 107.87298584 C249.41606887 104.74862288 247.95802854 101.62431419 246.5 98.5 C245.91666611 97.25000026 245.33333278 96.00000026 244.75 94.75 C244.46125 94.13125 244.1725 93.5125 243.875 92.875 C241.24999999 87.24999998 241.24999999 87.24999998 240.37501526 85.37503052 C239.79163329 84.12492775 239.20824909 82.87482603 238.62486267 81.62472534 C237.16725519 78.50130616 235.70968633 75.37786897 234.25219727 72.25439453 C231.02909413 65.34723853 227.80517299 58.44046585 224.57965088 51.53443909 C223.12197892 48.4131176 221.66521416 45.29137871 220.21044922 42.16870117 C219.63641365 40.93667668 219.06235767 39.7046617 218.48828125 38.47265625 C218.06286041 37.5596299 218.06286041 37.5596299 217.62884521 36.62815857 C215.81918291 32.74751422 213.9995886 28.87166981 212.17378235 24.99859619 C210.94716823 22.3946925 209.72496977 19.78873009 208.50344849 17.18243408 C207.92240552 15.94558062 207.33932721 14.70968106 206.75411987 13.47479248 C205.94806796 11.773409 205.14962309 10.06842779 204.3515625 8.36328125 C203.89604004 7.39688721 203.44051758 6.43049316 202.97119141 5.43481445 C202 3 202 3 202 0 C253.48 0 304.96 0 358 0 C366.91 18.81 366.91 18.81 376 38 C379.14429828 44.6257365 382.28922834 51.25115385 385.4375 57.875 C386.2213781 59.52472821 387.00523137 61.17446822 387.7890625 62.82421875 C389.39557772 66.20544778 391.00219283 69.58662931 392.60888672 72.96777344 C394.99101641 77.98090297 397.37255086 82.99431512 399.75390625 88.0078125 C400.14616898 88.83363327 400.5384317 89.65945404 400.94258118 90.51029968 C402.90987551 94.65205574 404.87703231 98.79387704 406.84399414 102.93579102 C410.53414173 110.70591855 414.22554579 118.47544187 417.92120361 126.24295044 C419.65570758 129.8887106 421.38952466 133.53479722 423.12329102 137.1809082 C423.94537708 138.90926117 424.76779502 140.63745633 425.59057617 142.36547852 C429.80192756 151.21044827 433.99880399 160.05724041 438 169 C438.86496094 168.93071289 439.72992188 168.86142578 440.62109375 168.79003906 C452.30635953 167.9498242 463.96511133 167.78046931 475.67822266 167.75976562 C478.96673252 167.7500978 482.25460544 167.71898171 485.54296875 167.6875 C504.50207146 167.59220585 523.36773346 169.06130405 541.8125 173.6875 C542.83239014 173.93661133 543.85228027 174.18572266 544.90307617 174.44238281 C556.14652934 177.33112455 566.65302965 181.79013708 577 187 C576.67 188.32 576.34 189.64 576 191 C570.63459212 190.38771228 565.34932471 189.55794046 560.03686523 188.59106445 C467.70004423 171.82999985 372.07078111 195.36617699 257.48779297 260.26708984 C233.7915454 276.7730727 210.84915731 296.22048106 193 319 C192.22140625 319.96164062 191.4428125 320.92328125 190.640625 321.9140625 C179.59529945 335.80865992 170.43847649 350.89612589 163 367 C162.46890625 368.12277344 161.9378125 369.24554688 161.390625 370.40234375 C152.21002618 390.6801097 148.31274048 412.01536107 146 434 C143.15986774 431.15986774 143.06258084 427.94800596 142.4375 424.125 C142.30819092 423.35559082 142.17888184 422.58618164 142.0456543 421.79345703 C137.41590798 393.39886445 139.92070401 363.36555379 151.9609375 337.03125 C153.87189115 331.45643784 151.37882542 327.34326977 148.9296875 322.234375 C148.6170697 321.57719482 148.3044519 320.92001465 147.98236084 320.24291992 C147.30591905 318.82177423 146.62708028 317.40176749 145.94610596 315.98278809 C144.10276377 312.14022476 142.27825919 308.28873698 140.453125 304.4375 C140.07793732 303.64664001 139.70274963 302.85578003 139.31619263 302.04095459 C135.66069698 294.3183266 132.13513131 286.53947638 128.625 278.75 C122.85045263 265.95101993 116.88310845 253.25125118 110.8447876 240.5748291 C105.30246152 228.93386108 99.89219929 217.24230956 94.59326172 205.48876953 C89.52764218 194.26174694 84.29687013 183.11962301 79 172 C73.07009723 159.55146309 67.26039095 147.05899316 61.59326172 134.48876953 C56.52764218 123.26174694 51.29687013 112.11962301 46 101 C40.07391862 88.55948527 34.26687062 76.07550444 28.6043396 63.51293945 C22.56958229 50.13495946 16.30355352 36.87060078 9.98828125 23.62304688 C0 2.66609674 0 2.66609674 0 0 Z " fill="#154899" transform="translate(1,0)"/>
<path d="M0 0 C51.48 0 102.96 0 156 0 C164.91 18.81 164.91 18.81 174 38 C177.14429828 44.6257365 180.28922834 51.25115385 183.4375 57.875 C184.2213781 59.52472821 185.00523137 61.17446822 185.7890625 62.82421875 C187.39557772 66.20544778 189.00219283 69.58662931 190.60888672 72.96777344 C192.99101641 77.98090298 195.37253899 82.99432075 197.75390625 88.0078125 C198.14616898 88.83358795 198.5384317 89.6593634 198.94258118 90.51016235 C200.91024578 94.65252104 202.87750527 98.7950713 204.84399414 102.93798828 C208.52936794 110.70108123 212.21863537 118.46225309 215.92120361 126.21716309 C217.65671351 129.85272875 219.39008032 133.48931433 221.12329102 137.12597656 C221.94465257 138.84784003 222.76704668 140.56921142 223.59057617 142.29003906 C227.96812668 151.43791595 232.24357046 160.57528302 236 170 C234.49221327 171.50778673 233.02940033 171.31747845 230.92578125 171.54296875 C184.36357302 176.88337592 139.2375494 190.15114479 96 208 C91.13188044 198.4195533 86.45928158 188.78876627 82.07269287 178.97763062 C76.02226343 165.46022116 69.75127559 152.05388667 63.375 138.6875 C61.7536582 135.28787862 60.13243794 131.8881995 58.51171875 128.48828125 C58.12176727 127.67025024 57.7318158 126.85221924 57.33004761 126.00939941 C52.32961104 115.50788694 47.45154938 104.95038442 42.57128906 94.39257812 C39.74820462 88.29724229 36.90486696 82.21135993 34.0625 76.125 C33.47557266 74.86784474 32.88865858 73.61068329 32.30175781 72.35351562 C30.5348062 68.56886983 28.76744204 64.78441678 27 61 C25.82026845 58.4739789 24.64058318 55.9479362 23.4609375 53.421875 C23.16907059 52.79693649 22.87720367 52.17199799 22.57649231 51.52812195 C21.11997911 48.40905761 19.66439049 45.28956736 18.21069336 42.16918945 C17.63657699 40.93700194 17.06243963 39.7048242 16.48828125 38.47265625 C16.20466232 37.86396194 15.9210434 37.25526764 15.62882996 36.62812805 C13.81917422 32.74749318 11.99958375 28.87165952 10.17378235 24.99859619 C8.94716823 22.3946925 7.72496977 19.78873009 6.50344849 17.18243408 C5.92240552 15.94558062 5.33932721 14.70968106 4.75411987 13.47479248 C3.94806796 11.773409 3.14962309 10.06842779 2.3515625 8.36328125 C1.89604004 7.39688721 1.44051758 6.43049316 0.97119141 5.43481445 C0 3 0 3 0 0 Z " fill="#144899" transform="translate(203,0)"/>
<path d="M0 0 C2.52619027 3.25365222 4.15068835 6.34246669 5.75 10.15234375 C6.00458984 10.75614868 6.25917969 11.35995361 6.52148438 11.98205566 C7.35433445 13.96448587 8.17782298 15.95062165 9 17.9375 C9.28423828 18.62006866 9.56847656 19.30263733 9.86132812 20.00588989 C28.79839778 65.51032849 45.48389898 109.57535653 26 158 C18.16470648 176.20808337 6.47301143 191.57913852 -7 206 C-8.13888672 207.22009766 -8.13888672 207.22009766 -9.30078125 208.46484375 C-19.94435986 219.49166087 -32.49094173 228.23605492 -45 237 C-47.20400309 234.96434373 -48.60254769 233.141804 -49.87841797 230.43188477 C-50.38651505 229.36484314 -50.38651505 229.36484314 -50.90487671 228.27624512 C-51.26368927 227.50574829 -51.62250183 226.73525146 -51.9921875 225.94140625 C-52.37412262 225.13441284 -52.75605774 224.32741943 -53.14956665 223.49597168 C-54.39771689 220.85441791 -55.63648695 218.20858421 -56.875 215.5625 C-57.74237085 213.72105242 -58.61021296 211.87982674 -59.47851562 210.03881836 C-61.99513457 204.69695684 -64.49951243 199.34942809 -67 194 C-67.32133911 193.31309082 -67.64267822 192.62618164 -67.97375488 191.91845703 C-71.69516331 183.96202302 -75.38601875 175.99163149 -79.06829834 168.01702881 C-82.47852696 160.63426922 -85.89554173 153.25464657 -89.3125 145.875 C-89.91853058 144.56568512 -89.91853058 144.56568512 -90.5368042 143.22991943 C-95.85314138 131.74653556 -101.20719601 120.2818858 -106.60946655 108.83868408 C-111.29329275 98.91702922 -115.97221068 88.99417664 -120.5 79 C-120.86818848 78.19264404 -121.23637695 77.38528809 -121.61572266 76.5534668 C-124 71.24270625 -124 71.24270625 -124 69 C-124.50789063 69.44730469 -125.01578125 69.89460938 -125.5390625 70.35546875 C-126.22742188 70.96003906 -126.91578125 71.56460938 -127.625 72.1875 C-128.72521484 73.15429688 -128.72521484 73.15429688 -129.84765625 74.140625 C-131.55207797 75.6130474 -133.3002067 77.0348584 -135.0625 78.4375 C-155.29841542 96.09010707 -172.50580442 125.06268775 -175 152 C-175.69528416 164.75411873 -173.0454337 175.9574141 -165.25 186.328125 C-155.72139223 196.73018848 -140.79529088 201.26791159 -127 202 C-116.4691935 202.38163738 -106.40524176 201.61335911 -95.97900391 200.24365234 C-91.33498734 199.67188717 -86.66564437 199.34160787 -82 199 C-104.26560426 213.84373617 -143.33692654 218.27442467 -169.39453125 214.46875 C-172.67371143 213.80351389 -175.81095405 213.00798182 -179 212 C-179.90492188 211.7215625 -180.80984375 211.443125 -181.7421875 211.15625 C-192.22062413 207.46172523 -200.96781116 199.89608191 -206.25 190.125 C-213.33302318 174.6308868 -210.08282993 158.37268234 -204.97265625 142.88671875 C-199.35216293 128.10542136 -189.69417918 115.46208573 -179 104 C-178.22052002 103.16275391 -178.22052002 103.16275391 -177.42529297 102.30859375 C-155.27734076 78.78961032 -127.1346863 63.14043219 -98.22094727 49.38989258 C-90.16799171 45.55629396 -82.21377959 41.57775867 -74.3125 37.4375 C-58.70801964 29.27346815 -42.94345857 21.42865274 -27.1875 13.5625 C-26.51683628 13.22762951 -25.84617256 12.89275902 -25.1551857 12.54774094 C-16.7717389 8.36191996 -8.38670437 4.17929091 0 0 Z " fill="#144899" transform="translate(462,221)"/>
<path d="M0 0 C12.60033425 12.32046502 18.99980657 28.12345243 19.65185547 45.68530273 C19.15306341 62.78971389 12.47661861 79.45820888 0.30029297 91.54858398 C-8.03384792 99.28665849 -17.73804347 104.54428637 -28.78564453 107.31030273 C-29.51783203 107.49979492 -30.25001953 107.68928711 -31.00439453 107.88452148 C-48.13342922 110.50680348 -65.28480124 108.15952009 -79.78564453 98.31030273 C-83.32872395 95.50189125 -86.58458635 92.50037959 -89.78564453 89.31030273 C-90.42373047 88.69541992 -91.06181641 88.08053711 -91.71923828 87.44702148 C-103.12127293 75.58788968 -107.30763779 59.56366461 -107.20776367 43.52832031 C-106.68612102 26.32095386 -99.68694982 11.64200114 -87.78564453 -0.68969727 C-62.03175165 -22.7913568 -25.11210522 -23.54309769 0 0 Z " fill="#EF8418" transform="translate(552.78564453125,17.689697265625)"/>
<path d="M0 0 C1.05809875 -0.00570007 2.11619751 -0.01140015 3.20635986 -0.01727295 C5.4349266 -0.02665234 7.66350675 -0.03322852 9.89208984 -0.03710938 C13.21608318 -0.04673159 16.53943449 -0.07778982 19.86328125 -0.109375 C38.89156566 -0.20426089 57.81501842 1.24728844 76.328125 5.890625 C77.85796021 6.26429199 77.85796021 6.26429199 79.41870117 6.64550781 C90.66215434 9.53424955 101.16865465 13.99326208 111.515625 19.203125 C111.185625 20.523125 110.855625 21.843125 110.515625 23.203125 C105.15021712 22.59083728 99.86494971 21.76106546 94.55249023 20.79418945 C2.21566923 4.03312485 -93.41359389 27.56930199 -207.99658203 92.47021484 C-231.6928296 108.9761977 -254.63521769 128.42360606 -272.484375 151.203125 C-273.26296875 152.16476562 -274.0415625 153.12640625 -274.84375 154.1171875 C-285.88907555 168.01178492 -295.04589851 183.09925089 -302.484375 199.203125 C-303.01546875 200.32589844 -303.5465625 201.44867188 -304.09375 202.60546875 C-313.27434882 222.8832347 -317.17163452 244.21848607 -319.484375 266.203125 C-322.32450726 263.36299274 -322.42179416 260.15113096 -323.046875 256.328125 C-323.17618408 255.55871582 -323.30549316 254.78930664 -323.4387207 253.99658203 C-330.36621929 211.50969688 -319.59881757 170.78329956 -294.5859375 136.00390625 C-291.31708031 131.64745532 -287.97059559 127.38782595 -284.484375 123.203125 C-284.06349609 122.68669434 -283.64261719 122.17026367 -283.20898438 121.63818359 C-271.53736951 107.33252403 -258.21945895 95.27795357 -243.484375 84.203125 C-242.90252441 83.75904297 -242.32067383 83.31496094 -241.72119141 82.85742188 C-234.13762544 77.07352245 -226.34186549 71.70212266 -218.296875 66.578125 C-217.075448 65.79610718 -217.075448 65.79610718 -215.8293457 64.99829102 C-215.06195068 64.51674561 -214.29455566 64.0352002 -213.50390625 63.5390625 C-212.82432861 63.11157715 -212.14475098 62.6840918 -211.44458008 62.24365234 C-209.46092976 61.19067966 -207.67801557 60.6471818 -205.484375 60.203125 C-205.484375 59.543125 -205.484375 58.883125 -205.484375 58.203125 C-201.89907219 56.31232583 -198.31003015 54.4288249 -194.71777344 52.55126953 C-193.50292546 51.91511819 -192.28901555 51.27717137 -191.07617188 50.63720703 C-134.1191133 20.59756235 -64.51185513 0.28023802 0 0 Z " fill="#EE8419" transform="translate(466.484375,167.796875)"/>
<path d="M0 0 C0.6875 2.0625 0.6875 2.0625 1 4 C0.03626465 4.25056152 -0.9274707 4.50112305 -1.92041016 4.75927734 C-85.72225493 26.62734025 -164.52150134 61.10913621 -211.88085938 137.21972656 C-212.80618923 138.69169544 -213.76591858 140.14197771 -214.734375 141.5859375 C-226.86936362 160.17987168 -232.67813573 182.72861224 -228.27734375 204.58984375 C-224.01013654 221.3076902 -214.21344029 235.10796603 -202 247 C-202 247.66 -202 248.32 -202 249 C-220.9826479 248.00091327 -238.14776473 238.62487698 -251 225 C-262.63261308 211.33062975 -264.02057462 196.2229891 -263 179 C-260.99740534 159.16096224 -248.94339802 139.5000717 -237 124 C-236.49210937 123.3395166 -235.98421875 122.6790332 -235.4609375 121.99853516 C-225.69730877 109.43026801 -215.27196137 97.18638654 -203 87 C-202.02160156 86.13375 -201.04320312 85.2675 -200.03515625 84.375 C-147.47183454 37.89689956 -78.24073461 12.1899333 -10 0 C-9.24299805 -0.13680176 -8.48599609 -0.27360352 -7.70605469 -0.41455078 C-4.63386911 -0.92069937 -3.02087465 -1.00695822 0 0 Z " fill="#EE8418" transform="translate(455,206)"/>
<path d="M0 0 C-1.34191406 0.90878906 -1.34191406 0.90878906 -2.7109375 1.8359375 C-9.72665227 6.66879081 -15.96636246 11.54826092 -21.81640625 17.7734375 C-24.07215932 20.07357928 -26.48079336 21.9968244 -29 24 C-48.48720965 43.66975962 -65.48668252 71.56079528 -66.1875 99.8125 C-65.99201082 111.59516621 -62.46250493 122.54614045 -54.375 131.375 C-40.82097187 143.76946299 -21.72461834 145.57203859 -4.19384766 145.10644531 C1.5771249 144.82643819 7.29679418 143.99564728 13.02099609 143.24365234 C17.66501266 142.67188717 22.33435563 142.34160787 27 142 C4.73439574 156.84373617 -34.33692654 161.27442467 -60.39453125 157.46875 C-63.67371143 156.80351389 -66.81095405 156.00798182 -70 155 C-70.90492188 154.7215625 -71.80984375 154.443125 -72.7421875 154.15625 C-83.22062413 150.46172523 -91.96781116 142.89608191 -97.25 133.125 C-104.33302318 117.6308868 -101.08282993 101.37268234 -95.97265625 85.88671875 C-90.35216293 71.10542136 -80.69417918 58.46208573 -70 47 C-69.48034668 46.44183594 -68.96069336 45.88367188 -68.42529297 45.30859375 C-50.79342371 26.58525368 -29.44813146 13.25047784 -7 1 C-5.9649231 0.39768555 -5.9649231 0.39768555 -4.90893555 -0.21679688 C-3 -1 -3 -1 0 0 Z " fill="#EE8418" transform="translate(353,278)"/>
<path d="M0 0 C5.40763101 -0.12425623 10.81441829 -0.21464659 16.22314453 -0.2746582 C18.06020599 -0.29969289 19.89716893 -0.33373145 21.73388672 -0.37719727 C24.38533927 -0.43834037 27.03546734 -0.46631957 29.6875 -0.48828125 C30.49928711 -0.51408768 31.31107422 -0.5398941 32.14746094 -0.56648254 C38.10377195 -0.56936567 42.53078199 0.94709467 47 5 C49.68082808 9.5106759 49.65006458 13.87449078 49 19 C46.36879665 24.04313975 41.98655215 25.78071801 37 28 C38.83444628 30.16579126 40.68946611 32.30550075 42.5625 34.4375 C43.33303711 35.35499023 43.33303711 35.35499023 44.11914062 36.29101562 C46.97338199 39.49982114 48.44340356 40.85426655 52.71484375 41.97265625 C56.00758122 42.17753561 56.00758122 42.17753561 59 41 C59.97374826 39.28228088 59.97374826 39.28228088 60.62573242 37.12280273 C60.90579636 36.30202744 61.18586029 35.48125214 61.47441101 34.63560486 C61.76516006 33.74394119 62.05590912 32.85227753 62.35546875 31.93359375 C62.66196854 31.02497086 62.96846832 30.11634796 63.28425598 29.18019104 C64.26321079 26.2695775 65.22548476 23.35375104 66.1875 20.4375 C66.84721824 18.46643203 67.50801185 16.49572364 68.16992188 14.52539062 C69.79246784 9.68768199 71.40007235 4.84523364 73 0 C77.29 0 81.58 0 86 0 C86.44915771 1.17095215 86.89831543 2.3419043 87.36108398 3.54833984 C89.02429407 7.88352811 90.68882485 12.21820827 92.35375977 16.55273438 C93.0748249 18.43052509 93.79552949 20.3084543 94.51586914 22.18652344 C95.55000059 24.88252477 96.58541823 27.57802901 97.62109375 30.2734375 C98.10551186 31.53756973 98.10551186 31.53756973 98.59971619 32.82723999 C98.89995193 33.60789825 99.20018768 34.38855652 99.50952148 35.19287109 C99.77377426 35.88126068 100.03802704 36.56965027 100.31028748 37.27890015 C101.52497719 40.48301472 101.52497719 40.48301472 104.5625 42.125 C105.366875 42.41375 106.17125 42.7025 107 43 C107 45.31 107 47.62 107 50 C98.75 50 90.5 50 82 50 C82 47.69 82 45.38 82 43 C83.65 42.67 85.3 42.34 87 42 C86.01 39.03 86.01 39.03 85 36 C80.38 36 75.76 36 71 36 C70.67 37.98 70.34 39.96 70 42 C71.485 42.495 71.485 42.495 73 43 C73 45.31 73 47.62 73 50 C43.00160155 52.86515316 43.00160155 52.86515316 35.00048828 48.28173828 C30.57914389 44.20995046 27.54045187 39.39298549 24.95678711 33.99291992 C23.9442988 31.76483995 23.9442988 31.76483995 22 29 C20.68 28.67 19.36 28.34 18 28 C18.33 32.29 18.66 36.58 19 41 C20.65 41.66 22.3 42.32 24 43 C24 45.31 24 47.62 24 50 C16.08 50 8.16 50 0 50 C0 47.69 0 45.38 0 43 C1.65 42.34 3.3 41.68 5 41 C5 30.77 5 20.54 5 10 C2.525 9.01 2.525 9.01 0 8 C0 5.36 0 2.72 0 0 Z M18 9 C18 12.96 18 16.92 18 21 C27.45111112 21.42763316 27.45111112 21.42763316 36 18 C37.32051497 16.13740463 37.32051497 16.13740463 37 14 C35.7196037 11.64137524 34.84819712 10.30004252 32.27734375 9.390625 C29.40424034 8.89781138 26.66374049 8.90582891 23.75 8.9375 C20.90375 8.9684375 20.90375 8.9684375 18 9 Z M77 15 C76.49166409 16.24663331 75.99368855 17.49749387 75.5 18.75 C75.2215625 19.44609375 74.943125 20.1421875 74.65625 20.859375 C73.80459673 23.26422695 73.80459673 23.26422695 74 27 C76.64 27 79.28 27 82 27 C81.54965877 25.37276701 81.08944646 23.74826336 80.625 22.125 C80.36976563 21.22007812 80.11453125 20.31515625 79.8515625 19.3828125 C79.1395685 16.85430274 79.1395685 16.85430274 77 15 Z " fill="#144899" transform="translate(335,584)"/>
<path d="M0 0 C1.17337728 4.77431475 1.29345788 9.51598342 1.48071289 14.4050293 C1.5198732 15.34554642 1.55903351 16.28606354 1.59938049 17.25508118 C1.72769047 20.36131522 1.85027782 23.4677458 1.97265625 26.57421875 C2.06061946 28.74031223 2.14887553 30.90639384 2.2374115 33.07246399 C2.42221265 37.61421331 2.60433958 42.1560593 2.78442383 46.69799805 C3.01457529 52.50047235 3.249965 58.30271875 3.48720646 64.10490704 C3.66985462 68.58056666 3.85038055 73.05630985 4.03021049 77.53208351 C4.11623789 79.67018413 4.20275458 81.80826513 4.28978157 83.9463253 C4.41145469 86.94680556 4.53043707 89.94738095 4.64868164 92.94799805 C4.68451355 93.82056244 4.72034546 94.69312683 4.75726318 95.59213257 C4.98225987 101.39741297 5.03912089 107.19060957 5 113 C2.2837407 110.41819306 0.91636668 108.06646242 -0.64453125 104.63671875 C-1.14911865 103.53803467 -1.65370605 102.43935059 -2.17358398 101.30737305 C-2.71442627 100.11281494 -3.25526855 98.91825684 -3.8125 97.6875 C-4.38866796 96.42780423 -4.96558681 95.16845166 -5.54321289 93.90942383 C-6.4470295 91.93910455 -7.35030468 89.96855432 -8.25114441 87.99687195 C-10.30283993 83.50759455 -12.37930548 79.03066297 -14.4765625 74.5625 C-14.76203445 73.95417831 -15.04750641 73.34585663 -15.34162903 72.71910095 C-15.91856866 71.48987406 -16.49553907 70.26066161 -17.07254028 69.03146362 C-24.54758099 53.09580457 -31.79584214 37.05961326 -39 21 C-36.97536624 18.82252951 -35.10559 17.35915934 -32.46240234 16.00708008 C-31.76513031 15.64693314 -31.06785828 15.28678619 -30.34945679 14.91572571 C-29.60249542 14.53748154 -28.85553406 14.15923737 -28.0859375 13.76953125 C-27.31569244 13.37424728 -26.54544739 12.97896332 -25.75186157 12.57170105 C-24.12762404 11.7395132 -22.50196746 10.91008995 -20.875 10.08325195 C-18.37445279 8.81222185 -15.87831699 7.53285109 -13.3828125 6.25195312 C-11.80493736 5.44482385 -10.22682064 4.63816665 -8.6484375 3.83203125 C-7.89742767 3.44771439 -7.14641785 3.06339752 -6.37265015 2.66743469 C-1.11698609 0 -1.11698609 0 0 0 Z " fill="#144899" transform="translate(516,193)"/>
<path d="M0 0 C7.92 0 15.84 0 24 0 C26.64 8.58 29.28 17.16 32 26 C34.50460704 20.24017207 34.50460704 20.24017207 36.3515625 14.4140625 C36.56296875 13.62902344 36.774375 12.84398437 36.9921875 12.03515625 C37.20101562 11.23980469 37.40984375 10.44445312 37.625 9.625 C39.873394 1.126606 39.873394 1.126606 41 0 C42.70772358 -0.08713831 44.41898649 -0.10700007 46.12890625 -0.09765625 C47.68061523 -0.09282227 47.68061523 -0.09282227 49.26367188 -0.08789062 C50.35228516 -0.07951172 51.44089844 -0.07113281 52.5625 -0.0625 C54.2012207 -0.05573242 54.2012207 -0.05573242 55.87304688 -0.04882812 C58.58208495 -0.03699826 61.29101599 -0.02051543 64 0 C64 2.31 64 4.62 64 7 C62.35 7.66 60.7 8.32 59 9 C59 19.56 59 30.12 59 41 C60.65 41.66 62.3 42.32 64 43 C64 45.31 64 47.62 64 50 C56.08 50 48.16 50 40 50 C40 47.69 40 45.38 40 43 C41.65 42.34 43.3 41.68 45 41 C45 32.42 45 23.84 45 15 C41.7 26.55 38.4 38.1 35 50 C32.03 50 29.06 50 26 50 C22.7 38.78 19.4 27.56 16 16 C16 24.25 16 32.5 16 41 C17.65 41.66 19.3 42.32 21 43 C21 45.31 21 47.62 21 50 C14.07 50 7.14 50 0 50 C0 47.69 0 45.38 0 43 C1.65 42.34 3.3 41.68 5 41 C5 30.44 5 19.88 5 9 C2.525 8.01 2.525 8.01 0 7 C0 4.69 0 2.38 0 0 Z " fill="#144899" transform="translate(547,584)"/>
<path d="M0 0 C7.26 0 14.52 0 22 0 C22 2.31 22 4.62 22 7 C21.01 7.33 20.02 7.66 19 8 C20.43066697 16.1698614 22.64137417 24.05394988 25 32 C28.3318416 23.33996542 29.66910726 16.99921976 27 8 C26.01 7.67 25.02 7.34 24 7 C24 4.69 24 2.38 24 0 C30.93 0 37.86 0 45 0 C45 2.31 45 4.62 45 7 C43.68 7.33 42.36 7.66 41 8 C41.57648075 15.35012956 43.71046164 22.01424576 46 29 C47.83875553 25.62066551 48.98851107 22.17043833 50.125 18.5 C50.47820313 17.3759375 50.83140625 16.251875 51.1953125 15.09375 C52.16781695 11.88758212 52.16781695 11.88758212 52 8 C51.01 7.67 50.02 7.34 49 7 C49 4.69 49 2.38 49 0 C55.27 0 61.54 0 68 0 C68 2.31 68 4.62 68 7 C67.05812836 7.37153702 67.05812836 7.37153702 66.097229 7.75057983 C63.51769116 9.28733457 63.24691512 10.14680077 62.44433594 12.99072266 C62.20438904 13.81142242 61.96444214 14.63212219 61.71722412 15.47769165 C61.47538391 16.36419403 61.2335437 17.25069641 60.984375 18.1640625 C60.72368225 19.07127045 60.4629895 19.97847839 60.19439697 20.91317749 C59.36475086 23.81313289 58.55719234 26.71872366 57.75 29.625 C57.19154722 31.5915562 56.63166874 33.55770813 56.0703125 35.5234375 C54.69695123 40.34442237 53.34336734 45.17057545 52 50 C47.71 50 43.42 50 39 50 C38.32844651 47.73050898 37.6626037 45.4596039 37 43.1875 C36.62875 41.92292969 36.2575 40.65835938 35.875 39.35546875 C35 36 35 36 35 33 C34.34 33 33.68 33 33 33 C32.81824219 33.96099609 32.81824219 33.96099609 32.6328125 34.94140625 C31.64320773 40.04928933 30.51489049 45.02250269 29 50 C24.71 50 20.42 50 16 50 C15.65743164 48.76846191 15.31486328 47.53692383 14.96191406 46.26806641 C13.68814856 41.70504724 12.39365321 37.14812956 11.09277344 32.59277344 C10.53239753 30.61944506 9.97767545 28.64450209 9.42871094 26.66796875 C8.63913216 23.82890572 7.82947438 20.99624952 7.015625 18.1640625 C6.77378479 17.27756012 6.53194458 16.39105774 6.28277588 15.47769165 C5.92285553 14.246642 5.92285553 14.246642 5.55566406 12.99072266 C5.3513678 12.26680328 5.14707153 11.54288391 4.93658447 10.79702759 C3.72115094 8.46497144 2.39959085 7.94655873 0 7 C0 4.69 0 2.38 0 0 Z " fill="#144899" transform="translate(0,584)"/>
<path d="M0 0 C6.93 0 13.86 0 21 0 C22.588125 3.01125 24.17625 6.0225 25.8125 9.125 C26.55463745 10.53096436 26.55463745 10.53096436 27.31176758 11.96533203 C27.71032959 12.72185059 28.1088916 13.47836914 28.51953125 14.2578125 C28.92276611 15.0223877 29.32600098 15.78696289 29.74145508 16.57470703 C31.19087249 19.36782295 32.5927113 22.18542261 34 25 C34 19.72 34 14.44 34 9 C32.35 8.34 30.7 7.68 29 7 C29 4.69 29 2.38 29 0 C35.93 0 42.86 0 50 0 C50 2.31 50 4.62 50 7 C48.35 7.66 46.7 8.32 45 9 C44.67 22.53 44.34 36.06 44 50 C40.37 50 36.74 50 33 50 C27.20387896 39.06084198 21.48876915 28.09685937 16 17 C16 24.92 16 32.84 16 41 C17.65 41.66 19.3 42.32 21 43 C21 45.31 21 47.62 21 50 C14.07 50 7.14 50 0 50 C0 47.69 0 45.38 0 43 C1.65 42.34 3.3 41.68 5 41 C5 30.44 5 19.88 5 9 C2.525 8.01 2.525 8.01 0 7 C0 4.69 0 2.38 0 0 Z " fill="#144899" transform="translate(148,507)"/>
<path d="M0 0 C4.83799361 -0.09951569 9.67538025 -0.17177037 14.51416016 -0.21972656 C16.1571695 -0.23973571 17.80010859 -0.26695213 19.44287109 -0.30175781 C21.81625788 -0.35075305 24.18869649 -0.37307504 26.5625 -0.390625 C27.64893799 -0.42159271 27.64893799 -0.42159271 28.75732422 -0.45318604 C35.10403892 -0.45592484 40.17080494 1.60774626 45.0234375 5.7109375 C45.46945313 6.26007812 45.91546875 6.80921875 46.375 7.375 C46.83648437 7.91898438 47.29796875 8.46296875 47.7734375 9.0234375 C52.11003339 16.01170986 51.7800847 24.07598174 51 32 C49.14801706 38.58961372 45.76450316 42.88077597 40.2578125 46.84375 C34.82577195 49.62555623 29.56729593 50.24537175 23.53515625 50.1953125 C22.51789711 50.19106766 22.51789711 50.19106766 21.48008728 50.18673706 C19.34070234 50.17565416 17.2017557 50.1505736 15.0625 50.125 C13.60091756 50.11495476 12.13932847 50.10583163 10.67773438 50.09765625 C7.11835021 50.07575425 3.55921797 50.04130866 0 50 C0 47.69 0 45.38 0 43 C1.65 42.34 3.3 41.68 5 41 C5 30.44 5 19.88 5 9 C2.525 8.01 2.525 8.01 0 7 C0 4.69 0 2.38 0 0 Z M18 8 C17.97534712 12.68139254 17.95716261 17.36274759 17.94506836 22.04418945 C17.94002843 23.63794614 17.9331965 25.23169819 17.92456055 26.82543945 C17.91248001 29.11150253 17.90676845 31.39750467 17.90234375 33.68359375 C17.89718246 34.40026718 17.89202118 35.11694061 17.88670349 35.85533142 C17.88650737 37.57063672 17.93807993 39.28581266 18 41 C19.03467055 42.26468588 19.03467055 42.26468588 21.29296875 42.0546875 C27.77283749 41.736056 27.77283749 41.736056 33.5 39 C37.70942984 33.94868419 39.39688752 28.897166 38.875 22.3125 C38.09700149 17.51902533 36.67759665 13.62167676 33.125 10.1875 C29.41505129 8.11429337 25.99633939 7.95920235 21.828125 7.98046875 C19.93320313 7.99013672 19.93320313 7.99013672 18 8 Z " fill="#144899" transform="translate(101,584)"/>
<path d="M0 0 C0.33 -0.33 0.66 -0.66 1 -1 C3.33297433 -1.04092937 5.66705225 -1.04241723 8 -1 C8.50690584 1.06081361 9.00524619 3.12373526 9.5 5.1875 C9.7784375 6.33605469 10.056875 7.48460937 10.34375 8.66796875 C10.91495385 11.56818829 11.13283779 14.06096385 11 17 C7.04 17.495 7.04 17.495 3 18 C2.6596875 17.45730469 2.319375 16.91460938 1.96875 16.35546875 C-1.14258548 11.76293899 -3.65217161 8.95472478 -9.03125 7.3203125 C-11.86197432 6.85975815 -14.25595555 7.24538778 -17 8 C-17.33 8.99 -17.66 9.98 -18 11 C-15.66722117 13.69889945 -13.68152064 14.65600406 -10.2890625 15.68359375 C-8.91621094 16.11575195 -8.91621094 16.11575195 -7.515625 16.55664062 C-5.59677904 17.14137004 -3.67751084 17.72471572 -1.7578125 18.30664062 C4.00853551 20.12482199 8.79992504 21.67988689 12.2890625 26.9453125 C14.08049739 32.12275618 13.7342728 37.37848089 11.5 42.3125 C7.26787397 46.86203549 3.94841896 49.63952433 -2.38671875 50.4140625 C-8.9531746 50.56758219 -14.25571169 50.28245046 -20 47 C-20.33 47.66 -20.66 48.32 -21 49 C-23.31 49 -25.62 49 -28 49 C-28.50604924 46.60530271 -29.00499517 44.20948283 -29.5 41.8125 C-29.64308594 41.13896484 -29.78617188 40.46542969 -29.93359375 39.77148438 C-30.68069842 36.12490207 -31.17352282 32.72351043 -31 29 C-27.04 28.505 -27.04 28.505 -23 28 C-22.56300781 28.79664063 -22.56300781 28.79664063 -22.1171875 29.609375 C-19.0485593 34.89745127 -16.20073542 38.80924035 -10.015625 40.5625 C-6.42735372 41.2100076 -4.3002767 41.14388259 -1 39.5625 C-0.34 39.046875 0.32 38.53125 1 38 C0.71622058 35.53463442 0.71622058 35.53463442 -1 33 C-4.10930167 31.39300665 -7.40578334 30.44408079 -10.75 29.4375 C-24.20659187 25.25897616 -24.20659187 25.25897616 -28.875 19.8125 C-30.48438347 15.78904131 -30.65679064 12.27291385 -30 8 C-27.87319164 3.30329821 -25.09926414 0.76940487 -20.484375 -1.3125 C-13.70957436 -3.1872876 -6.37897194 -2.95870684 0 0 Z " fill="#144899" transform="translate(245,508)"/>
<path d="M0 0 C7.92 0 15.84 0 24 0 C24 2.31 24 4.62 24 7 C22.35 7.66 20.7 8.32 19 9 C18.94152955 12.85410207 18.90624595 16.70808865 18.875 20.5625 C18.85824219 21.64853516 18.84148437 22.73457031 18.82421875 23.85351562 C18.78917151 29.61878742 18.8875948 34.59913423 21 40 C23.49727117 42.14051815 24.77256428 42.01392464 28.0625 41.8125 C31.08460663 40.97659817 32.22127815 40.52765737 34 38 C35.08183568 34.68801144 35.11535136 31.6088661 35.09765625 28.140625 C35.09443359 27.02558594 35.09121094 25.91054688 35.08789062 24.76171875 C35.07951172 23.60285156 35.07113281 22.44398438 35.0625 21.25 C35.05798828 20.07566406 35.05347656 18.90132812 35.04882812 17.69140625 C35.03705094 14.79421928 35.02060326 11.89713546 35 9 C33.35 8.34 31.7 7.68 30 7 C30 4.69 30 2.38 30 0 C36.93 0 43.86 0 51 0 C51 2.31 51 4.62 51 7 C49.35 7.66 47.7 8.32 46 9 C45.99589111 9.86689453 45.99178223 10.73378906 45.98754883 11.62695312 C45.96039991 14.87787366 45.91113792 18.12753607 45.84741211 21.37792969 C45.82437492 22.77820407 45.8098702 24.17864821 45.80444336 25.57910156 C45.73250613 41.09540927 45.73250613 41.09540927 40 47 C34.52759611 51.26851987 28.94198221 51.61566337 22.12890625 51.38671875 C16.28845663 50.66486543 12.58679733 48.66817155 8.5625 44.4375 C5.92205509 40.31840594 5.82547963 36.94838189 5.68359375 32.14453125 C5.66281265 31.48289474 5.64203156 30.82125824 5.62062073 30.13957214 C5.55535273 28.03065148 5.49634656 25.92160865 5.4375 23.8125 C5.39429311 22.38084685 5.35067812 20.94920596 5.30664062 19.51757812 C5.19969494 16.01184846 5.09836359 12.50598214 5 9 C2.525 8.01 2.525 8.01 0 7 C0 4.69 0 2.38 0 0 Z " fill="#144899" transform="translate(446,507)"/>
<path d="M0 0 C4.29 0 8.58 0 13 0 C13.44915771 1.17095215 13.89831543 2.3419043 14.36108398 3.54833984 C16.02429407 7.88352811 17.68882485 12.21820827 19.35375977 16.55273438 C20.0748249 18.43052509 20.79552949 20.3084543 21.51586914 22.18652344 C22.55000059 24.88252477 23.58541823 27.57802901 24.62109375 30.2734375 C24.94403915 31.11619232 25.26698456 31.95894714 25.59971619 32.82723999 C25.89995193 33.60789825 26.20018768 34.38855652 26.50952148 35.19287109 C26.77377426 35.88126068 27.03802704 36.56965027 27.31028748 37.27890015 C28.52497719 40.48301472 28.52497719 40.48301472 31.5625 42.125 C32.7690625 42.558125 32.7690625 42.558125 34 43 C34 45.31 34 47.62 34 50 C25.75 50 17.5 50 9 50 C9 47.69 9 45.38 9 43 C11.475 42.505 11.475 42.505 14 42 C13.34 40.02 12.68 38.04 12 36 C7.38 36 2.76 36 -2 36 C-2.33 37.98 -2.66 39.96 -3 42 C-1.515 42.495 -1.515 42.495 0 43 C0 45.31 0 47.62 0 50 C-6.27 50 -12.54 50 -19 50 C-19 47.69 -19 45.38 -19 43 C-17.87235229 42.78851318 -17.87235229 42.78851318 -16.72192383 42.57275391 C-12.4591106 40.1096592 -11.88528522 36.37572394 -10.44921875 31.8359375 C-10.14554886 30.92872955 -9.84187897 30.02152161 -9.52900696 29.08682251 C-8.56352178 26.18857423 -7.62531707 23.28230492 -6.6875 20.375 C-6.03758467 18.40826593 -5.38591284 16.44211138 -4.73242188 14.4765625 C-3.13449023 9.65752874 -1.56096684 4.83112758 0 0 Z M4 15 C3.49166409 16.24663331 2.99368855 17.49749387 2.5 18.75 C2.2215625 19.44609375 1.943125 20.1421875 1.65625 20.859375 C0.80459673 23.26422695 0.80459673 23.26422695 1 27 C3.64 27 6.28 27 9 27 C8.54965877 25.37276701 8.08944646 23.74826336 7.625 22.125 C7.36976563 21.22007812 7.11453125 20.31515625 6.8515625 19.3828125 C6.1395685 16.85430274 6.1395685 16.85430274 4 15 Z " fill="#144899" transform="translate(633,584)"/>
<path d="M0 0 C4.29 0 8.58 0 13 0 C13.44915771 1.17095215 13.89831543 2.3419043 14.36108398 3.54833984 C16.02429407 7.88352811 17.68882485 12.21820827 19.35375977 16.55273438 C20.0748249 18.43052509 20.79552949 20.3084543 21.51586914 22.18652344 C22.55000059 24.88252477 23.58541823 27.57802901 24.62109375 30.2734375 C24.94403915 31.11619232 25.26698456 31.95894714 25.59971619 32.82723999 C25.89995193 33.60789825 26.20018768 34.38855652 26.50952148 35.19287109 C26.77377426 35.88126068 27.03802704 36.56965027 27.31028748 37.27890015 C28.52497719 40.48301472 28.52497719 40.48301472 31.5625 42.125 C32.7690625 42.558125 32.7690625 42.558125 34 43 C34 45.31 34 47.62 34 50 C25.75 50 17.5 50 9 50 C9 47.69 9 45.38 9 43 C11.475 42.505 11.475 42.505 14 42 C13.34 40.02 12.68 38.04 12 36 C7.38 36 2.76 36 -2 36 C-2.33 37.98 -2.66 39.96 -3 42 C-1.515 42.495 -1.515 42.495 0 43 C0 45.31 0 47.62 0 50 C-6.27 50 -12.54 50 -19 50 C-19 47.69 -19 45.38 -19 43 C-17.87235229 42.78851318 -17.87235229 42.78851318 -16.72192383 42.57275391 C-12.4591106 40.1096592 -11.88528522 36.37572394 -10.44921875 31.8359375 C-10.14554886 30.92872955 -9.84187897 30.02152161 -9.52900696 29.08682251 C-8.56352178 26.18857423 -7.62531707 23.28230492 -6.6875 20.375 C-6.03758467 18.40826593 -5.38591284 16.44211138 -4.73242188 14.4765625 C-3.13449023 9.65752874 -1.56096684 4.83112758 0 0 Z M4 15 C3.49166409 16.24663331 2.99368855 17.49749387 2.5 18.75 C2.2215625 19.44609375 1.943125 20.1421875 1.65625 20.859375 C0.80459673 23.26422695 0.80459673 23.26422695 1 27 C3.64 27 6.28 27 9 27 C8.54965877 25.37276701 8.08944646 23.74826336 7.625 22.125 C7.36976563 21.22007812 7.11453125 20.31515625 6.8515625 19.3828125 C6.1395685 16.85430274 6.1395685 16.85430274 4 15 Z " fill="#144899" transform="translate(511,584)"/>
<path d="M0 0 C4.29 0 8.58 0 13 0 C13.44915771 1.17095215 13.89831543 2.3419043 14.36108398 3.54833984 C16.02429407 7.88352811 17.68882485 12.21820827 19.35375977 16.55273438 C20.0748249 18.43052509 20.79552949 20.3084543 21.51586914 22.18652344 C22.55000059 24.88252477 23.58541823 27.57802901 24.62109375 30.2734375 C24.94403915 31.11619232 25.26698456 31.95894714 25.59971619 32.82723999 C25.89995193 33.60789825 26.20018768 34.38855652 26.50952148 35.19287109 C26.77377426 35.88126068 27.03802704 36.56965027 27.31028748 37.27890015 C28.52497719 40.48301472 28.52497719 40.48301472 31.5625 42.125 C32.7690625 42.558125 32.7690625 42.558125 34 43 C34 45.31 34 47.62 34 50 C25.75 50 17.5 50 9 50 C9 47.69 9 45.38 9 43 C11.475 42.505 11.475 42.505 14 42 C13.34 40.02 12.68 38.04 12 36 C7.38 36 2.76 36 -2 36 C-2.33 37.98 -2.66 39.96 -3 42 C-1.515 42.495 -1.515 42.495 0 43 C0 45.31 0 47.62 0 50 C-6.27 50 -12.54 50 -19 50 C-19 47.69 -19 45.38 -19 43 C-17.87235229 42.78851318 -17.87235229 42.78851318 -16.72192383 42.57275391 C-12.4591106 40.1096592 -11.88528522 36.37572394 -10.44921875 31.8359375 C-10.14554886 30.92872955 -9.84187897 30.02152161 -9.52900696 29.08682251 C-8.56352178 26.18857423 -7.62531707 23.28230492 -6.6875 20.375 C-6.03758467 18.40826593 -5.38591284 16.44211138 -4.73242188 14.4765625 C-3.13449023 9.65752874 -1.56096684 4.83112758 0 0 Z M4 15 C3.49166409 16.24663331 2.99368855 17.49749387 2.5 18.75 C2.2215625 19.44609375 1.943125 20.1421875 1.65625 20.859375 C0.80459673 23.26422695 0.80459673 23.26422695 1 27 C3.64 27 6.28 27 9 27 C8.54965877 25.37276701 8.08944646 23.74826336 7.625 22.125 C7.36976563 21.22007812 7.11453125 20.31515625 6.8515625 19.3828125 C6.1395685 16.85430274 6.1395685 16.85430274 4 15 Z " fill="#144899" transform="translate(225,584)"/>
<path d="M0 0 C4.73222455 -0.07445407 9.46410411 -0.1287447 14.19677734 -0.16479492 C15.80491072 -0.17983176 17.41300344 -0.20026672 19.02099609 -0.22631836 C21.33962064 -0.26292822 23.65770049 -0.27977722 25.9765625 -0.29296875 C27.04567368 -0.31619453 27.04567368 -0.31619453 28.13638306 -0.33988953 C32.84590825 -0.34145828 36.00372513 0.5175551 40 3 C44.44283112 7.92313719 45.36719453 10.95419928 45.2734375 17.4609375 C44.71860186 22.61298275 42.02220537 25.11718627 38.25 28.375 C32.34470985 31.52970246 24.47367838 30.27977482 18 30 C18.33 33.63 18.66 37.26 19 41 C20.65 41.66 22.3 42.32 24 43 C24 45.31 24 47.62 24 50 C16.08 50 8.16 50 0 50 C0 47.69 0 45.38 0 43 C1.65 42.34 3.3 41.68 5 41 C5 30.44 5 19.88 5 9 C2.525 8.01 2.525 8.01 0 7 C0 4.69 0 2.38 0 0 Z M18 8 C18 12.62 18 17.24 18 22 C24.78750354 22.06606829 24.78750354 22.06606829 30.25 18.8125 C31.23339537 15.12476734 30.72550211 13.37598239 29 10 C25.45212919 7.1091423 22.95024231 8 18 8 Z " fill="#144899" transform="translate(286,584)"/>
<path d="M0 0 C8.25 0 16.5 0 25 0 C25 2.31 25 4.62 25 7 C23.68 7.33 22.36 7.66 21 8 C21.57823838 12.77046664 23.46028288 15.99802151 26 20 C26.66 20.33 27.32 20.66 28 21 C28.226875 20.29875 28.45375 19.5975 28.6875 18.875 C29.84224089 16.34556758 30.84107539 14.86931959 32.625 12.8125 C35.21506027 10.35884646 35.21506027 10.35884646 35 8 C33.68 7.67 32.36 7.34 31 7 C31 4.69 31 2.38 31 0 C37.6 0 44.2 0 51 0 C51 2.31 51 4.62 51 7 C48.81640625 8.51171875 48.81640625 8.51171875 46 10 C44.09963773 12.12266063 42.53383708 14.45623739 40.9375 16.8125 C40.51662109 17.41642578 40.09574219 18.02035156 39.66210938 18.64257812 C38.82817602 19.84370074 38.00265322 21.05071049 37.18603516 22.26367188 C36.06865371 23.89949255 34.88951202 25.49263205 33.70703125 27.08203125 C31.78986957 30.3591932 31.56713758 32.12632047 31.75 35.875 C31.80414063 37.32519531 31.80414063 37.32519531 31.859375 38.8046875 C31.90578125 39.52914062 31.9521875 40.25359375 32 41 C33.65 41.66 35.3 42.32 37 43 C37 45.31 37 47.62 37 50 C29.08 50 21.16 50 13 50 C13 47.69 13 45.38 13 43 C13.639375 42.87625 14.27875 42.7525 14.9375 42.625 C15.618125 42.41875 16.29875 42.2125 17 42 C18.99429414 38.01141172 18.94297512 34.31613185 18 30 C15.62356217 25.25342121 12.41060383 20.98899669 9.25878906 16.73486328 C8.04889683 15.06738962 6.925607 13.36587125 5.8125 11.6328125 C4.00399616 9.00580476 2.95610451 8.05575161 0 7 C0 4.69 0 2.38 0 0 Z " fill="#144899" transform="translate(155,584)"/>
<path d="M0 0 C12.54 0 25.08 0 38 0 C43 12 43 12 44 18 C41.69 18.66 39.38 19.32 37 20 C36.62488281 19.44570313 36.24976563 18.89140625 35.86328125 18.3203125 C35.35152344 17.59585938 34.83976562 16.87140625 34.3125 16.125 C33.81363281 15.40570312 33.31476563 14.68640625 32.80078125 13.9453125 C30.8005019 11.50544044 30.8005019 11.50544044 26 10 C26 20.56 26 31.12 26 42 C27.65 42.66 29.3 43.32 31 44 C31 46.31 31 48.62 31 51 C23.08 51 15.16 51 7 51 C7 48.69 7 46.38 7 44 C8.65 43.34 10.3 42.68 12 42 C12 31.44 12 20.88 12 10 C9.69 10.66 7.38 11.32 5 12 C3.59742124 14.38119246 3.59742124 14.38119246 3 17 C2.34 17.99 1.68 18.98 1 20 C-1.31 19.34 -3.62 18.68 -6 18 C-5.76372793 16.68495941 -5.50987576 15.37308034 -5.25 14.0625 C-5.11078125 13.33160156 -4.9715625 12.60070312 -4.828125 11.84765625 C-3.63728588 7.75274248 -1.73199922 3.89699825 0 0 Z " fill="#144899" transform="translate(447,583)"/>
<path d="M0 0 C12.54 0 25.08 0 38 0 C43 12 43 12 44 18 C41.69 18.66 39.38 19.32 37 20 C36.62488281 19.44570313 36.24976563 18.89140625 35.86328125 18.3203125 C35.35152344 17.59585938 34.83976563 16.87140625 34.3125 16.125 C33.81363281 15.40570312 33.31476562 14.68640625 32.80078125 13.9453125 C30.8005019 11.50544044 30.8005019 11.50544044 26 10 C26 20.56 26 31.12 26 42 C27.65 42.66 29.3 43.32 31 44 C31 46.31 31 48.62 31 51 C23.08 51 15.16 51 7 51 C7 48.69 7 46.38 7 44 C8.65 43.34 10.3 42.68 12 42 C12 31.44 12 20.88 12 10 C9.69 10.66 7.38 11.32 5 12 C3.59742124 14.38119246 3.59742124 14.38119246 3 17 C2.34 17.99 1.68 18.98 1 20 C-1.31 19.34 -3.62 18.68 -6 18 C-5.76372793 16.68495941 -5.50987576 15.37308034 -5.25 14.0625 C-5.11078125 13.33160156 -4.9715625 12.60070312 -4.828125 11.84765625 C-3.63728588 7.75274248 -1.73199922 3.89699825 0 0 Z " fill="#144899" transform="translate(518,506)"/>
<path d="M0 0 C12.54 0 25.08 0 38 0 C43 12 43 12 44 18 C41.69 18.66 39.38 19.32 37 20 C36.62488281 19.44570313 36.24976563 18.89140625 35.86328125 18.3203125 C35.35152344 17.59585938 34.83976562 16.87140625 34.3125 16.125 C33.81363281 15.40570312 33.31476563 14.68640625 32.80078125 13.9453125 C30.8005019 11.50544044 30.8005019 11.50544044 26 10 C26 20.56 26 31.12 26 42 C27.65 42.66 29.3 43.32 31 44 C31 46.31 31 48.62 31 51 C23.08 51 15.16 51 7 51 C7 48.69 7 46.38 7 44 C8.65 43.34 10.3 42.68 12 42 C12 31.44 12 20.88 12 10 C9.69 10.66 7.38 11.32 5 12 C3.59742124 14.38119246 3.59742124 14.38119246 3 17 C2.34 17.99 1.68 18.98 1 20 C-1.31 19.34 -3.62 18.68 -6 18 C-5.76372793 16.68495941 -5.50987576 15.37308034 -5.25 14.0625 C-5.11078125 13.33160156 -4.9715625 12.60070312 -4.828125 11.84765625 C-3.63728588 7.75274248 -1.73199922 3.89699825 0 0 Z " fill="#144899" transform="translate(387,506)"/>
<path d="M0 0 C12.54 0 25.08 0 38 0 C43 12 43 12 44 18 C41.69 18.66 39.38 19.32 37 20 C36.62488281 19.44570313 36.24976563 18.89140625 35.86328125 18.3203125 C35.35152344 17.59585938 34.83976562 16.87140625 34.3125 16.125 C33.81363281 15.40570312 33.31476563 14.68640625 32.80078125 13.9453125 C30.8005019 11.50544044 30.8005019 11.50544044 26 10 C26 20.56 26 31.12 26 42 C27.65 42.66 29.3 43.32 31 44 C31 46.31 31 48.62 31 51 C23.08 51 15.16 51 7 51 C7 48.69 7 46.38 7 44 C8.65 43.34 10.3 42.68 12 42 C12 31.44 12 20.88 12 10 C9.69 10.66 7.38 11.32 5 12 C3.59742124 14.38119246 3.59742124 14.38119246 3 17 C2.34 17.99 1.68 18.98 1 20 C-1.31 19.34 -3.62 18.68 -6 18 C-5.76372793 16.68495941 -5.50987576 15.37308034 -5.25 14.0625 C-5.11078125 13.33160156 -4.9715625 12.60070312 -4.828125 11.84765625 C-3.63728588 7.75274248 -1.73199922 3.89699825 0 0 Z " fill="#144899" transform="translate(280,506)"/>
<path d="M0 0 C7.92 0 15.84 0 24 0 C24 2.31 24 4.62 24 7 C22.35 7.66 20.7 8.32 19 9 C19 19.56 19 30.12 19 41 C20.65 41.66 22.3 42.32 24 43 C24 45.31 24 47.62 24 50 C16.08 50 8.16 50 0 50 C0 47.69 0 45.38 0 43 C1.65 42.34 3.3 41.68 5 41 C5 30.44 5 19.88 5 9 C2.525 8.01 2.525 8.01 0 7 C0 4.69 0 2.38 0 0 Z " fill="#144899" transform="translate(70,584)"/>
<path d="M0 0 C7.92 0 15.84 0 24 0 C24 2.31 24 4.62 24 7 C22.35 7.66 20.7 8.32 19 9 C19 19.56 19 30.12 19 41 C20.65 41.66 22.3 42.32 24 43 C24 45.31 24 47.62 24 50 C16.08 50 8.16 50 0 50 C0 47.69 0 45.38 0 43 C1.65 42.34 3.3 41.68 5 41 C5 30.44 5 19.88 5 9 C2.525 8.01 2.525 8.01 0 7 C0 4.69 0 2.38 0 0 Z " fill="#144899" transform="translate(340,507)"/>
<path d="M0 0 C7.92 0 15.84 0 24 0 C24 2.31 24 4.62 24 7 C22.35 7.66 20.7 8.32 19 9 C19 19.56 19 30.12 19 41 C20.65 41.66 22.3 42.32 24 43 C24 45.31 24 47.62 24 50 C16.08 50 8.16 50 0 50 C0 47.69 0 45.38 0 43 C1.65 42.34 3.3 41.68 5 41 C5 30.44 5 19.88 5 9 C2.525 8.01 2.525 8.01 0 7 C0 4.69 0 2.38 0 0 Z " fill="#144899" transform="translate(105,507)"/>
<path d="M0 0 C-2.64 1.65 -5.28 3.3 -8 5 C-8.99 4.34 -9.98 3.68 -11 3 C-9.73581754 2.30034557 -8.46334598 1.61565237 -7.1875 0.9375 C-6.47980469 0.55464844 -5.77210938 0.17179687 -5.04296875 -0.22265625 C-3 -1 -3 -1 0 0 Z " fill="#A36D2A" transform="translate(353,278)"/>
</svg>
